
<svg id="Layer_1" data-name="Layer 1" xmlns="http://www.w3.org/2000/svg" viewBox="0 0 868.78 207.44"><defs><style>.cls-1,.cls-2,.cls-4{fill:#1d1d1b;}.cls-1,.cls-2,.cls-3,.cls-4{stroke:#1d1d1b;stroke-linejoin:round;}.cls-1{stroke-width:1.06px;}.cls-2,.cls-4{stroke-linecap:round;}.cls-2{stroke-width:3px;}.cls-3{fill:none;stroke-width:4px;}.cls-4{stroke-width:2.01px;}</style></defs><path class="cls-1" d="M116.72,31.16l2.1-25.38S54.77-3.28.53,4.84L2.19,30.25C50.4,23.37,105.17,29.73,116.72,31.16Z"/><path class="cls-1" d="M27.62,172.66l-10-7.72a2.5,2.5,0,0,1-1-2v-9.61a5.36,5.36,0,1,1,5,0v8.38l5.9,4.56V125.1a5.36,5.36,0,1,1,5-.47v78a81.7,81.7,0,0,0,9.39,2.63V201a5.36,5.36,0,1,1,5,0v5.16a75.4,75.4,0,0,0,7.9.74V190.83l-12-9.5a2.5,2.5,0,0,1-1-2v-9.61a5.37,5.37,0,1,1,5,0v8.4L55,184.4V143.82l-8.27-6.56V143a5.38,5.38,0,1,1-5.14.13V132.37a2,2,0,0,1,0-.43V120.15a2.18,2.18,0,0,1,0-.44v-5.65L28.14,103.42a2.54,2.54,0,0,1-.95-2v-9.6a5.36,5.36,0,1,1,5,0v8.4l9.36,7.41V79L28.14,68.31a2.54,2.54,0,0,1-.95-2V56.72a5.36,5.36,0,1,1,5,0v8.4l12.64,10a2.53,2.53,0,0,1,.77,1,2.55,2.55,0,0,1,1.09,2.09v52.58L55,137.39V66.12L39.24,52.34a2.51,2.51,0,0,1-.86-1.9V40.18a5.35,5.35,0,0,1-1.66-8.13c-4.22.13-8.47.33-12.71.61a5.63,5.63,0,0,1,0,.58,5.36,5.36,0,0,1-10.72.29c-3.46.34-6.9.74-10.29,1.2l10.26,158a67.93,67.93,0,0,0,14.33,8ZM16,65.36a5.37,5.37,0,1,1,5-.15l.29,4.13a5.36,5.36,0,1,1-5,.37Z"/><path class="cls-1" d="M46.25,35.44a5.37,5.37,0,0,1-2.83,4.73V49.3L55,59.42V55.65a5.37,5.37,0,0,1,3-9.82h.25a5.37,5.37,0,0,1,3,9.82v3.77L72.81,49.3V40.17a5.37,5.37,0,0,1-1.74-8c-8.24-.31-17.09-.46-26.19-.34A5.34,5.34,0,0,1,46.25,35.44Z"/><path class="cls-1" d="M102.83,34.24a5.36,5.36,0,0,1-10.63-.87c-3.83-.28-8-.54-12.3-.77a5.34,5.34,0,0,1-2.05,7.58V50.44a2.51,2.51,0,0,1-.86,1.9L61.24,66.12v71.27l8.28-6.56V78.25a2.57,2.57,0,0,1,1.08-2.09,2.53,2.53,0,0,1,.77-1L84,65.11v-8.4a5.36,5.36,0,1,1,5,0v9.61a2.55,2.55,0,0,1-1,2L74.65,79v28.68l9.36-7.4v-8.4a5.36,5.36,0,1,1,5,0v9.6a2.55,2.55,0,0,1-1,2L74.65,114.06v5.65a2.18,2.18,0,0,1,0,.44v11.79a2,2,0,0,1,0,.43v10.71a5.37,5.37,0,1,1-5.13-.13v-5.69l-8.28,6.56V184.4l7.9-6.26v-8.4a5.37,5.37,0,1,1,5,0v9.61a2.52,2.52,0,0,1-1,2l-12,9.5V206.9a74.15,74.15,0,0,0,7.91-.77V201a5.36,5.36,0,1,1,5,0v4.2a80.75,80.75,0,0,0,9.39-2.69V124.63a5.36,5.36,0,1,1,5,.47v41.18l5.89-4.56v-8.38a5.38,5.38,0,1,1,5,0V163a2.5,2.5,0,0,1-1,2l-9.95,7.72v27.88a96,96,0,0,0,14.59-7.84L116.15,35.62C113.12,35.26,108.56,34.76,102.83,34.24Zm-.41,40a5.37,5.37,0,1,1-7.64-4.86l.31-4.24a5.36,5.36,0,1,1,5,.26l-.3,4.25A5.37,5.37,0,0,1,102.42,74.25Z"/><path class="cls-2" d="M228,67.59c-7.52,7.18-18.13,10.94-29.07,10.94s-21.55-3.76-29.07-10.94a38.57,38.57,0,0,1,0-55.15C177.34,5.26,188,1.5,198.89,1.5S220.44,5.26,228,12.44a38.57,38.57,0,0,1,0,55.15ZM184,25.92a20.22,20.22,0,0,0-5.86,14.48A18.78,18.78,0,0,0,184,54.11,20.94,20.94,0,0,0,198.89,60c6.52,0,11.38-2.32,14.81-5.74a20.34,20.34,0,0,0,6-14.15,19.93,19.93,0,0,0-6-14.15,22.11,22.11,0,0,0-14.81-5.85A21.26,21.26,0,0,0,184,25.92Z"/><path class="cls-2" d="M259.89,3.16,277.58,48l17.9-44.87h20.78L284.87,76.87H270L239,3.16Z"/><path class="cls-2" d="M368.09,19.4H345.32V31.67h21.55V47.92H345.32V60.63h22.77V76.87H326.2V3.16h41.89Z"/><path class="cls-2" d="M410.08,3.16c5.53,0,12.6.88,18,6.52,4.2,4.31,6.3,10.72,6.3,16.58,0,6.3-2.21,11.82-5.86,15.36a20.62,20.62,0,0,1-10.17,5.08l23.1,30.17H417.71L399.36,48.58V76.87H380.24V3.16Zm-10.72,33H403c2.87,0,7-.77,9.28-3A9.17,9.17,0,0,0,414.72,27a8.69,8.69,0,0,0-2.54-6.19c-1.77-1.77-5-2.87-9.17-2.87h-3.65Z"/><path class="cls-2" d="M507.56,19.4V76.87H488.44V19.4h-15.7V3.16h50.51V19.4Z"/><path class="cls-2" d="M553.09,30.68h27.63V3.16H600V76.87H580.72V47H553.09V76.87H534V3.16h19.12Z"/><path class="cls-2" d="M655.1,19.4H632.33V31.67h21.55V47.92H632.33V60.63H655.1V76.87H613.21V3.16H655.1Z"/><path class="cls-2" d="M742.4,64.5H715.65l-5,12.37H690.46L718.75,3.16h20.89l27.74,73.71H746.93Zm-5.08-14.59L729,26,721,49.91Z"/><path class="cls-2" d="M792.79,3.16V76.87H773.67V3.16Z"/><path class="cls-2" d="M835.89,3.16c5.53,0,12.6.88,18,6.52,4.2,4.31,6.3,10.72,6.3,16.58,0,6.3-2.21,11.82-5.86,15.36a20.62,20.62,0,0,1-10.17,5.08l23.1,30.17H843.52L825.17,48.58V76.87H806.05V3.16Zm-10.72,33h3.65c2.87,0,7-.77,9.28-3A9.18,9.18,0,0,0,840.54,27,8.7,8.7,0,0,0,838,20.84c-1.76-1.77-5-2.87-9.17-2.87h-3.65Z"/><path class="cls-3" d="M158,202.38V128.66h28.52c5.3,0,11.6.77,16.13,5.75,2.55,2.76,4.53,7.29,4.53,13.81a19,19,0,0,1-2.1,9.06,11.54,11.54,0,0,1-6,5.75,18.32,18.32,0,0,1,10.05,4.42c3,2.88,5,7.63,5,13.49,0,7-2.66,11.71-5.42,14.47-4,4.09-10.94,7-20,7Zm19.12-44.65h3.54c2,0,5.3-.22,7.29-2.32a7.14,7.14,0,0,0,1.77-4.87,7.53,7.53,0,0,0-1.77-5c-1.21-1.22-3.53-2.21-7.29-2.21h-3.54Zm0,29.73h4.31c5.31,0,9.73-.56,11.83-3a7.18,7.18,0,0,0,1.55-4.75,7.54,7.54,0,0,0-1.88-5.31c-2.32-2.32-7.08-2.43-11.83-2.43h-4Z"/><path class="cls-3" d="M259,128.66c5.53,0,12.6.88,18,6.52,4.2,4.31,6.3,10.72,6.3,16.58,0,6.3-2.21,11.82-5.86,15.36a20.66,20.66,0,0,1-10.17,5.08l23.1,30.18H266.6l-18.35-28.3v28.3H229.13V128.66Zm-10.72,33h3.65c2.87,0,7-.77,9.28-3a9.17,9.17,0,0,0,2.43-6.19,8.69,8.69,0,0,0-2.54-6.19c-1.77-1.77-5-2.87-9.17-2.87h-3.65Z"/><path class="cls-3" d="M345.31,144.91H322.54v12.26H344.1v16.25H322.54v12.71h22.77v16.25H303.42V128.66h41.89Z"/><path class="cls-3" d="M380.16,128.66,393,176.29l15.58-47.63h15.25l14.48,47.63,13.92-47.63h20l-23.54,73.72H429.12l-13.38-42.66L401.6,202.38H382.14l-22-73.72Z"/><path class="cls-4" d="M156.71,104.17V101.5H867.44v2.67Z"/></svg>